{"title":"Arbitrage 2012 HDRiP AC3-2 0 XviD-AXED","uid":7636440,"size":1469421965,"categoryP":"video","categoryS":"movies","magnet":"?xt=urn:btih:47d421b22bb363dd3525a70c8211e0b88ba4c96d&amp;dn=Arbitrage+2012+HDRiP+AC3-2+0+XviD-AXED&amp;tr=udp%3A%2F%2Ftracker.openbittorrent.com%3A80&amp;tr=udp%3A%2F%2Fopen.demonii.com%3A1337&amp;tr=udp%3A%2F%2Ftracker.coppersurfer.tk%3A6969&amp;tr=udp%3A%2F%2Fexodus.desync.com%3A6969","seeders":1,"leechers":2,"uploader":"neon","files":-1,"time":1347657150,"description":" &lt;a href=&quot; http://www.imdb.com/title/tt1764183/&quot; rel=&quot;nofollow&quot; target=&quot;_NEW&quot;&gt; http://www.imdb.com/title/tt1764183/&lt;/a&gt;\n \nPLOT INFO:\n A troubled hedge fund magnate desperate to complete the sale of his trading empire makes an error that forces him to turn to an unlikely person for help.\n \nMEDIAINFO:\n General\n Complete name : Arbitrage.2012.HDRiP.AC3-2.0.XviD-AXED.avi\n Format : AVI\n Format/Info : Audio Video Interleave\n File size : 1.35 GiB\n Duration : 1h 47mn\n Overall bit rate : 1 803 Kbps\n \nVideo\n ID : 0\n Format : MPEG-4 Visual\n Format profile : Advanced Simple@L5\n Format settings, BVOP : 2\n Format settings, QPel : No\n Format settings, GMC : No warppoints\n Format settings, Matrix : Default (H.263)\n Muxing mode : Packed bitstream\n Codec ID : XVID\n Codec ID/Hint : XviD\n Duration : 1h 47mn\n Bit rate : 1 603 Kbps\n Width : 720 pixels\n Height : 384 pixels\n Display aspect ratio : 1.85:1\n Frame rate : 23.976 fps\n Color space : YUV\n Chroma subsampling : 4:2:0\n Bit depth : 8 bits\n Scan type : Progressive\n Compression mode : Lossy\n Bits/(Pixel*Frame) : 0.242\n Stream size : 1.20 GiB (89%)\n Writing library : XviD 64\n \nAudio\n ID : 1\n Format : AC-3\n Format/Info : Audio Coding 3\n Mode extension : CM (complete main)\n Format settings, Endianness : Big\n Codec ID : 2000\n Duration : 1h 47mn\n Bit rate mode : Constant\n Bit rate : 192 Kbps\n Channel(s) : 2 channels\n Channel positions : Front: L R\n Sampling rate : 48.0 KHz\n Bit depth : 16 bits\n Compression mode : Lossy\n Stream size : 148 MiB (11%)\n Alignment : Aligned on interleaves\n Interleave, duration : 64 ms (1.53 video frames)\n Interleave, preload duration : 192 ms\n Title : arbitrage\n \n\n\n\nSOURCE:\n 720p wmv Digital VOD Rental\n \n\nNOTES:\n The new thriller starring Richard Gere, Susan Sarandon &amp; Tim Roth that hits theatres today!\n \nAXED! - The only name to trust for VOD/HDRiP!\n &lt;a href=&quot;\nhttp://www.shotpix.com/images/89602580584241612430.png&quot; rel=&quot;nofollow&quot; target=&quot;_NEW&quot;&gt;\nhttp://www.shotpix.com/images/89602580584241612430.png&lt;/a&gt; &lt;a href=&quot;\nhttp://www.shotpix.com/images/90690809350306836356.png&quot; rel=&quot;nofollow&quot; target=&quot;_NEW&quot;&gt;\nhttp://www.shotpix.com/images/90690809350306836356.png&lt;/a&gt; &lt;a href=&quot;\nhttp://www.shotpix.com/images/72062260505206596021.png&quot; rel=&quot;nofollow&quot; target=&quot;_NEW&quot;&gt;\nhttp://www.shotpix.com/images/72062260505206596021.png&lt;/a&gt;","torrent":{"xt":"urn:btih:47d421b22bb363dd3525a70c8211e0b88ba4c96d","amp;dn":"Arbitrage+2012+HDRiP+AC3-2+0+XviD-AXED","amp;tr":["udp%3A%2F%2Ftracker.openbittorrent.com%3A80","udp%3A%2F%2Fopen.demonii.com%3A1337","udp%3A%2F%2Ftracker.coppersurfer.tk%3A6969","udp%3A%2F%2Fexodus.desync.com%3A6969"],"infoHash":"47d421b22bb363dd3525a70c8211e0b88ba4c96d","infoHashBuffer":{"type":"Buffer","data":[71,212,33,178,43,179,99,221,53,37,167,12,130,17,224,184,139,164,201,109]},"announce":[],"urlList":[]}}